<svg width="493" height="487" viewBox="0 0 493 487" fill="none" xmlns="http://www.w3.org/2000/svg">
<rect width="13.3156" height="13.3156" fill="#CC0033"/>
<rect x="53.2637" width="13.3156" height="13.3156" fill="#CC0033"/>
<rect x="106.525" width="13.3156" height="13.3156" fill="#CC0033"/>
<rect x="159.788" width="13.3156" height="13.3156" fill="#CC0033"/>
<rect x="213.049" width="13.3156" height="13.3156" fill="#CC0033"/>
<rect x="266.313" width="13.3156" height="13.3156" fill="#CC0033"/>
<rect x="319.576" width="13.3156" height="13.3156" fill="#CC0033"/>
<rect x="372.837" width="13.3156" height="13.3156" fill="#CC0033"/>
<rect x="426.101" width="13.3156" height="13.3156" fill="#CC0033"/>
<rect x="479.362" width="13.3156" height="13.3156" fill="#CC0033"/>
<rect y="53.2626" width="13.3156" height="13.3156" fill="#CC0033"/>
<rect x="53.2637" y="53.2626" width="13.3156" height="13.3156" fill="#CC0033"/>
<rect x="106.525" y="53.2626" width="13.3156" height="13.3156" fill="#CC0033"/>
<rect x="159.788" y="53.2626" width="13.3156" height="13.3156" fill="#CC0033"/>
<rect x="213.049" y="53.2626" width="13.3156" height="13.3156" fill="#CC0033"/>
<rect x="266.313" y="53.2626" width="13.3156" height="13.3156" fill="#CC0033"/>
<rect x="319.576" y="53.2626" width="13.3156" height="13.3156" fill="#CC0033"/>
<rect x="372.837" y="53.2626" width="13.3156" height="13.3156" fill="#CC0033"/>
<rect x="426.101" y="53.2626" width="13.3156" height="13.3156" fill="#CC0033"/>
<rect x="479.362" y="53.2626" width="13.3156" height="13.3156" fill="#CC0033"/>
<rect y="106.525" width="13.3156" height="13.3156" fill="#CC0033"/>
<rect x="53.2637" y="106.525" width="13.3156" height="13.3156" fill="#CC0033"/>
<rect x="106.525" y="106.525" width="13.3156" height="13.3156" fill="#CC0033"/>
<rect x="159.788" y="106.525" width="13.3156" height="13.3156" fill="#CC0033"/>
<rect x="213.049" y="106.525" width="13.3156" height="13.3156" fill="#CC0033"/>
<rect x="266.313" y="106.525" width="13.3156" height="13.3156" fill="#CC0033"/>
<rect x="319.576" y="106.525" width="13.3156" height="13.3156" fill="#CC0033"/>
<rect x="372.837" y="106.525" width="13.3156" height="13.3156" fill="#CC0033"/>
<rect x="426.101" y="106.525" width="13.3156" height="13.3156" fill="#CC0033"/>
<rect x="479.362" y="106.525" width="13.3156" height="13.3156" fill="#CC0033"/>
<rect y="159.788" width="13.3156" height="13.3156" fill="#CC0033"/>
<rect x="53.2637" y="159.788" width="13.3156" height="13.3156" fill="#CC0033"/>
<rect x="106.525" y="159.788" width="13.3156" height="13.3156" fill="#CC0033"/>
<rect x="159.788" y="159.788" width="13.3156" height="13.3156" fill="#CC0033"/>
<rect x="213.049" y="159.788" width="13.3156" height="13.3156" fill="#CC0033"/>
<rect x="266.313" y="159.788" width="13.3156" height="13.3156" fill="#CC0033"/>
<rect x="319.576" y="159.788" width="13.3156" height="13.3156" fill="#CC0033"/>
<rect x="372.837" y="159.788" width="13.3156" height="13.3156" fill="#CC0033"/>
<rect x="426.101" y="159.788" width="13.3156" height="13.3156" fill="#CC0033"/>
<rect x="479.362" y="159.788" width="13.3156" height="13.3156" fill="#CC0033"/>
<rect y="213.05" width="13.3156" height="13.3156" fill="#CC0033"/>
<rect x="53.2637" y="213.05" width="13.3156" height="13.3156" fill="#CC0033"/>
<rect x="106.525" y="213.05" width="13.3156" height="13.3156" fill="#CC0033"/>
<rect x="159.788" y="213.05" width="13.3156" height="13.3156" fill="#CC0033"/>
<rect x="213.049" y="213.05" width="13.3156" height="13.3156" fill="#CC0033"/>
<rect x="266.313" y="213.05" width="13.3156" height="13.3156" fill="#CC0033"/>
<rect x="319.576" y="213.05" width="13.3156" height="13.3156" fill="#CC0033"/>
<rect x="372.837" y="213.05" width="13.3156" height="13.3156" fill="#CC0033"/>
<rect x="426.101" y="213.05" width="13.3156" height="13.3156" fill="#CC0033"/>
<rect x="479.362" y="213.05" width="13.3156" height="13.3156" fill="#CC0033"/>
<rect y="266.313" width="13.3156" height="13.3156" fill="#CC0033"/>
<rect x="53.2637" y="266.313" width="13.3156" height="13.3156" fill="#CC0033"/>
<rect x="106.525" y="266.313" width="13.3156" height="13.3156" fill="#CC0033"/>
<rect x="159.788" y="266.313" width="13.3156" height="13.3156" fill="#CC0033"/>
<rect x="213.049" y="266.313" width="13.3156" height="13.3156" fill="#CC0033"/>
<rect x="266.313" y="266.313" width="13.3156" height="13.3156" fill="#CC0033"/>
<rect x="319.576" y="266.313" width="13.3156" height="13.3156" fill="#CC0033"/>
<rect x="372.837" y="266.313" width="13.3156" height="13.3156" fill="#CC0033"/>
<rect x="426.101" y="266.313" width="13.3156" height="13.3156" fill="#CC0033"/>
<rect x="479.362" y="266.313" width="13.3156" height="13.3156" fill="#CC0033"/>
<rect y="319.575" width="13.3156" height="13.3156" fill="#CC0033"/>
<rect y="370.945" width="13.3156" height="13.3156" fill="#CC0033"/>
<rect y="422.315" width="13.3156" height="13.3156" fill="#CC0033"/>
<rect y="473.684" width="13.3156" height="13.3156" fill="#CC0033"/>
<rect x="53.2637" y="319.575" width="13.3156" height="13.3156" fill="#CC0033"/>
<rect x="53.2637" y="370.945" width="13.3156" height="13.3156" fill="#CC0033"/>
<rect x="53.2637" y="422.315" width="13.3156" height="13.3156" fill="#CC0033"/>
<rect x="53.2637" y="473.684" width="13.3156" height="13.3156" fill="#CC0033"/>
<rect x="106.525" y="319.575" width="13.3156" height="13.3156" fill="#CC0033"/>
<rect x="106.525" y="370.945" width="13.3156" height="13.3156" fill="#CC0033"/>
<rect x="106.525" y="422.315" width="13.3156" height="13.3156" fill="#CC0033"/>
<rect x="106.525" y="473.684" width="13.3156" height="13.3156" fill="#CC0033"/>
<rect x="159.788" y="319.575" width="13.3156" height="13.3156" fill="#CC0033"/>
<rect x="159.788" y="370.945" width="13.3156" height="13.3156" fill="#CC0033"/>
<rect x="159.788" y="422.315" width="13.3156" height="13.3156" fill="#CC0033"/>
<rect x="159.788" y="473.684" width="13.3156" height="13.3156" fill="#CC0033"/>
<rect x="213.049" y="319.575" width="13.3156" height="13.3156" fill="#CC0033"/>
<rect x="213.049" y="370.945" width="13.3156" height="13.3156" fill="#CC0033"/>
<rect x="213.049" y="422.315" width="13.3156" height="13.3156" fill="#CC0033"/>
<rect x="213.049" y="473.684" width="13.3156" height="13.3156" fill="#CC0033"/>
<rect x="266.313" y="319.575" width="13.3156" height="13.3156" fill="#CC0033"/>
<rect x="266.313" y="370.945" width="13.3156" height="13.3156" fill="#CC0033"/>
<rect x="266.313" y="422.315" width="13.3156" height="13.3156" fill="#CC0033"/>
<rect x="266.313" y="473.684" width="13.3156" height="13.3156" fill="#CC0033"/>
<rect x="319.576" y="319.575" width="13.3156" height="13.3156" fill="#CC0033"/>
<rect x="319.576" y="370.945" width="13.3156" height="13.3156" fill="#CC0033"/>
<rect x="319.576" y="422.315" width="13.3156" height="13.3156" fill="#CC0033"/>
<rect x="319.576" y="473.684" width="13.3156" height="13.3156" fill="#CC0033"/>
<rect x="372.837" y="319.575" width="13.3156" height="13.3156" fill="#CC0033"/>
<rect x="372.837" y="370.945" width="13.3156" height="13.3156" fill="#CC0033"/>
<rect x="372.837" y="422.315" width="13.3156" height="13.3156" fill="#CC0033"/>
<rect x="372.837" y="473.684" width="13.3156" height="13.3156" fill="#CC0033"/>
<rect x="426.101" y="319.575" width="13.3156" height="13.3156" fill="#CC0033"/>
<rect x="426.101" y="370.945" width="13.3156" height="13.3156" fill="#CC0033"/>
<rect x="426.101" y="422.315" width="13.3156" height="13.3156" fill="#CC0033"/>
<rect x="426.101" y="473.684" width="13.3156" height="13.3156" fill="#CC0033"/>
<rect x="479.362" y="319.575" width="13.3156" height="13.3156" fill="#CC0033"/>
<rect x="479.362" y="370.945" width="13.3156" height="13.3156" fill="#CC0033"/>
<rect x="479.362" y="422.315" width="13.3156" height="13.3156" fill="#CC0033"/>
<rect x="479.362" y="473.684" width="13.3156" height="13.3156" fill="#CC0033"/>
</svg>
