<svg width="32" height="32" viewBox="0 0 32 32" fill="none" xmlns="http://www.w3.org/2000/svg">
<g clip-path="url(#clip0_85_7)">
<path d="M30.3877 15.9998L28.7454 17.6421L28.7362 17.6514L25.0121 21.3744L22.5566 23.8299L18.5033 27.8832C18.2867 28.1002 18.0294 28.2723 17.7462 28.3898C17.463 28.5072 17.1594 28.5677 16.8528 28.5677C16.5462 28.5677 16.2426 28.5072 15.9594 28.3898C15.6762 28.2723 15.4189 28.1002 15.2023 27.8832L11.5952 24.2782C12.2811 23.7285 12.5374 22.504 12.7685 21.6606C12.7877 21.5912 12.8067 21.5218 12.8254 21.4526C13.2606 19.8526 13.6354 18.2373 14.0738 16.6387C14.1591 16.328 14.2441 16.0126 14.3312 15.6958C14.5744 14.8133 14.8357 13.918 15.1828 13.0718C15.378 13.8046 15.5426 14.5488 15.7086 15.2926C15.9134 16.2103 16.1204 17.1269 16.3892 18.0197C16.4983 18.3827 16.6178 18.7415 16.7518 19.0949C16.8682 19.4031 16.9966 19.7071 17.1369 20.0069C17.3659 20.494 17.6546 20.9314 18.0887 21.2588C18.7725 21.7715 20.237 22.4578 21.1109 22.0674C21.6894 21.8078 22.002 21.0597 22.2132 20.3561C22.3156 20.014 22.3934 19.6823 22.466 19.4224C23.0064 17.4864 23.3833 15.5067 23.8405 13.5522C24.0855 12.5058 24.3049 11.3552 24.6836 10.2949L26.1769 11.7883L30.3877 15.9998Z" fill="#CC0033"/>
<path d="M22.2264 7.83975C21.6219 8.88117 21.3286 10.137 21.0459 11.3025C21.0221 11.401 20.9979 11.4988 20.9748 11.5958C20.5428 13.3491 20.1872 15.1212 19.7659 16.879C19.7407 16.9829 19.7161 17.0899 19.6916 17.199C19.5995 17.6118 19.5092 18.0616 19.3961 18.5071C19.2895 18.1267 19.1913 17.7445 19.095 17.3615C18.9172 16.655 18.7512 15.9461 18.5759 15.2406C18.5286 15.0497 18.482 14.8556 18.4354 14.6597C18.3668 14.3706 18.2975 14.0776 18.2221 13.785C18.0159 12.9768 17.7691 12.1718 17.3812 11.4589C17.0761 10.8997 16.6673 10.521 16.0966 10.2273C15.4057 9.87175 14.2161 9.37966 13.4562 9.83619C12.7494 10.2629 12.3366 11.2506 12.0379 12.1448C11.9199 12.4986 11.8196 12.8378 11.7257 13.1212C11.0822 15.0611 10.6015 17.0525 10.0977 19.0298C9.91525 19.7484 9.73961 20.4691 9.52023 21.1738C9.44165 21.4277 9.36058 21.6886 9.26387 21.9475L3.31543 16.0001L15.2013 4.11566C15.4179 3.89867 15.6752 3.72652 15.9584 3.60907C16.2416 3.49161 16.5452 3.43115 16.8518 3.43115C17.1584 3.43115 17.462 3.49161 17.7452 3.60907C18.0284 3.72652 18.2857 3.89867 18.5023 4.11566L22.2264 7.83975Z" fill="#CC0033"/>
<path d="M24.682 10.2953C24.3033 11.3555 24.0839 12.5061 23.839 13.5525C23.3817 15.5081 23.0048 17.4867 22.4644 19.4227C22.3933 19.6826 22.314 20.0144 22.2116 20.3564C22.0015 21.0601 21.6889 21.8082 21.1094 22.0677C20.2361 22.4588 18.7716 21.7719 18.0871 21.2592C17.653 20.9335 17.3643 20.4944 17.1353 20.0073C16.9931 19.7079 16.8647 19.4039 16.7502 19.0953C16.6162 18.7418 16.4967 18.3842 16.3876 18.0201C16.1188 17.1273 15.9118 16.2106 15.707 15.293C15.541 14.5491 15.3764 13.805 15.1812 13.0722C14.8342 13.9184 14.5728 14.8144 14.3296 15.6962C14.2425 16.013 14.1575 16.3283 14.0722 16.6391C13.6338 18.2391 13.259 19.853 12.8238 21.453C12.8049 21.5222 12.7859 21.5915 12.767 21.661C12.5358 22.5043 12.2795 23.7289 11.5936 24.2786L15.2014 27.8846L9.26367 21.9468C9.36038 21.688 9.44145 21.427 9.52003 21.1731C9.7394 20.4684 9.91505 19.7477 10.0974 19.0291C10.6009 17.0519 11.0816 15.0604 11.7238 13.1198C11.8176 12.8354 11.9179 12.4972 12.0359 12.1434C12.3346 11.2492 12.747 10.259 13.4542 9.83482C14.2141 9.37971 15.4038 9.87038 16.0946 10.2259C16.6653 10.5196 17.0742 10.8983 17.3792 11.4576C17.7671 12.1705 18.0139 12.9754 18.2201 13.7836C18.2948 14.0762 18.3623 14.3692 18.4334 14.6583C18.48 14.8542 18.5266 15.0494 18.5739 15.2393C18.7492 15.9447 18.9159 16.6537 19.093 17.3602C19.1894 17.7431 19.2886 18.1253 19.3942 18.5058C19.5072 18.0602 19.5975 17.6105 19.6896 17.1977C19.7142 17.0878 19.7387 16.9808 19.7639 16.8777C20.1867 15.1198 20.5422 13.3477 20.9728 11.5945C20.9966 11.4974 21.0208 11.3996 21.0439 11.3011C21.3284 10.1356 21.6192 8.8798 22.2244 7.83838L24.682 10.2953Z" fill="white"/>
</g>
<defs>
<clipPath id="clip0_85_7">
<rect width="32" height="32" fill="white"/>
</clipPath>
</defs>
</svg>
