<svg id="Layer_1" data-name="Layer 1" xmlns="http://www.w3.org/2000/svg" viewBox="0 0 1920 1080"><defs><style>.cls-1{fill:#fff;}.cls-2{fill:#fff;}.cls-3{fill:#fff;}</style></defs><title>Becurious _ logotipo _ Original</title><path class="cls-1" d="M885.24,464.23A154.07,154.07,0,0,1,868.46,535Q851.69,568,823,584.71t-65.8,16.67a172.46,172.46,0,0,1-42.38-5.45q-21.54-5.46-36.42-14.79L739,295.51h48.23L767.33,389,758.2,428.1h1q14.29-20.85,30.27-30.37a67.22,67.22,0,0,1,35-9.53q28.79,0,44.76,20.05T885.24,464.23Zm-48,4q0-42.07-32-42.08-20.24,0-37.81,22.14t-24.12,53.69l-11.9,56.57q12.9,6.94,32.35,7a59,59,0,0,0,37.61-13.1q16.57-13.11,26.2-36.33A123.76,123.76,0,0,0,837.2,468.19Z"/><path class="cls-1" d="M1084.19,443.18q0,36.74-34.14,54.09T946.44,515.44l-.4,2.18v4q0,20.64,12.31,32.06t34.34,11.41a106.7,106.7,0,0,0,32.25-5.46,149.14,149.14,0,0,0,31.46-14l-7.94,39.5q-30,16.27-66.09,16.27-39.51,0-61.64-22T898.6,517.22a142.08,142.08,0,0,1,15.09-64.61q15.07-30.08,42.08-47.24a108.07,108.07,0,0,1,59.15-17.17q32,0,50.61,15.09T1084.19,443.18Zm-46.45,1.2q0-9.93-7.24-15.79t-20-5.85q-21,0-38.11,17.27T950,482.49Q1037.74,482.49,1037.74,444.38Z"/><path class="cls-2" d="M843.55,681.07a66,66,0,0,0-18.75-10.72A67.64,67.64,0,0,0,800.08,666a57.94,57.94,0,0,0-34.43,11.12q-15.58,11.11-25.51,32a101.41,101.41,0,0,0-9.93,44q0,24.61,11,37.42t31.46,12.8a77.38,77.38,0,0,0,26.1-5,118,118,0,0,0,24.72-12.11l-8.34,40.29q-28.18,14.69-56,14.69-36.12,0-56.57-22.13t-20.44-61.24a143.47,143.47,0,0,1,15.28-65.6Q712.74,662,740,645t61.83-17a121.75,121.75,0,0,1,28.78,3.47q14.29,3.48,22.23,8.83Z"/><path class="cls-2" d="M1023.45,836.29H975.81L982,793.21h-.8q-16.06,22.63-35.92,35.34t-40.5,12.7q-25.2,0-38.5-14.39T853,786.47q0-9.74,6.15-38.91L883.32,633h48L906.54,749.94q-4.17,22.23-4.17,26.6,0,11.91,6,18.86t17.86,7q13.69,0,28.09-10.13t25.5-27.29q11.12-17.17,14.69-34.24L1015.32,633h48l-29.18,136.56A639.4,639.4,0,0,0,1023.45,836.29Z"/><path class="cls-2" d="M1215.86,679.28q-12.1-6.36-23.42-6.35-20.65,0-37.62,20.84t-24.31,55.58l-18.46,86.94h-48l28.19-132.2q10.13-49.43,11.91-71.06h47.24q-2,19.26-5.56,42.88h.8q12.5-22.63,26.3-35.24a46.28,46.28,0,0,1,32.25-12.6q7.54,0,20,3Z"/><path class="cls-2" d="M1259.39,839.66q-21.84,0-33.25-11t-11.41-31.47a94.28,94.28,0,0,1,2.18-20.24L1246.49,633h48.23l-27,128q-4.17,19.85-4.17,25.61,0,15.08,17.27,15.08a48.23,48.23,0,0,0,18.06-3.18l-7.54,36.53A124.16,124.16,0,0,1,1259.39,839.66Zm54-275.51a25.69,25.69,0,0,1-8.53,19.75,29.68,29.68,0,0,1-20.85,7.84q-11.91,0-20.14-7.14t-8.24-18.86q0-12.11,8.73-19.65a31.1,31.1,0,0,1,21-7.54,28.88,28.88,0,0,1,19.75,7.24A23.39,23.39,0,0,1,1313.38,564.15Z"/><path class="cls-2" d="M1511.74,711q0,36.91-14.79,67.39t-40.89,46.64q-26.1,16.18-60.24,16.18-38.31,0-60.24-22t-21.93-60.94q0-36.91,14.78-67.09t40.79-46.65q26-16.47,60.34-16.47,37.73,0,60,22.13T1511.74,711Zm-48.43,1.19q0-21.24-9.83-33.74T1426.19,666q-18.06,0-32.75,12.41T1370.31,712a122.08,122.08,0,0,0-8.43,45.46q0,21.43,10,33.64t27.3,12.21q18.45,0,33.24-12.41t22.83-33.64A126.21,126.21,0,0,0,1463.31,712.23Z"/><path class="cls-2" d="M1698.19,836.29h-47.64l6.16-43.08h-.8q-16.08,22.63-35.93,35.34t-40.49,12.7q-25.2,0-38.51-14.39t-13.29-40.39q0-9.74,6.15-38.91L1558.05,633h48l-24.81,116.91q-4.17,22.23-4.17,26.6,0,11.91,6,18.86t17.87,7q13.69,0,28.09-10.13t25.5-27.29q11.12-17.17,14.69-34.24L1690.05,633h48l-29.18,136.56A639.4,639.4,0,0,0,1698.19,836.29Z"/><path class="cls-2" d="M1885.24,676.3a99.29,99.29,0,0,0-20.74-8.93,79.63,79.63,0,0,0-23.92-3.77q-16.68,0-24.91,7a22.8,22.8,0,0,0-8.24,18.17,22,22,0,0,0,6.75,16.47q6.73,6.56,19.45,13.5,25.8,14.49,35.23,27.59t9.43,30.77q0,19.25-10,33.54T1839,833.11q-19.26,8.14-47,8.14a163.08,163.08,0,0,1-32-3.37q-16.87-3.37-25.81-8.14l7.94-39.3A116,116,0,0,0,1768,801.55a98.72,98.72,0,0,0,28.88,4.57q17.46,0,26-6.55t8.54-18.07a22.5,22.5,0,0,0-5.86-15.48q-5.85-6.56-22.73-15.68-22.42-12.11-32.65-25.61T1760,693a60,60,0,0,1,9.62-33.45q9.63-14.79,27.79-23.12t43.18-8.34a156.21,156.21,0,0,1,29.08,2.68,125.28,125.28,0,0,1,23.92,6.65Z"/><path class="cls-2" d="M327.67,238.75C161.3,238.75,26.42,373.62,26.42,540S161.3,841.25,327.67,841.25H628.92V540C628.92,373.62,494.05,238.75,327.67,238.75Zm149.15,450.4c-82.37,82.37-215.92,82.37-298.29,0s-82.38-215.93,0-298.3,215.92-82.37,298.29,0S559.19,606.77,476.82,689.15Z"/><polygon class="cls-1" points="461.92 482.67 355.49 376.25 259.08 376.25 413.71 530.88 461.92 482.67"/><polygon class="cls-1" points="348.96 617.41 261.9 617.41 305.43 660.95 348.96 704.48 348.96 617.41"/><polygon class="cls-2" points="339.43 714.01 295.9 670.48 252.37 626.95 252.37 714.01 339.43 714.01"/><polygon class="cls-3" points="252.37 626.94 252.37 626.95 295.9 670.48 252.37 626.94"/><polygon class="cls-3" points="348.96 704.48 305.43 660.95 348.96 704.48 348.96 704.48"/><polygon class="cls-1" points="461.92 482.67 355.49 376.25 259.08 376.25 413.71 530.88 461.92 482.67"/><polygon class="cls-2" points="356.1 492.08 259.08 589.1 355.49 589.1 404.3 540.29 356.1 492.08"/></svg>