<svg xmlns="http://www.w3.org/2000/svg" viewBox="0 0 1080 768"><title>logodrops</title><path d="M367.81,181.64h0" fill="#ffbc00"/><path d="M676.91,181.63C635.32,96,522.48,14,522.48,14a.24.24,0,0,1,0,.1V14S409.4,96,367.81,181.63c0,0,68.72,59.78,154.53,63.39l.13,0,.14,0C608.42,241.41,676.91,181.63,676.91,181.63Z" fill="#a2f6e5"/><path d="M355.45,236.54c3.54,86.55,76.87,160,166.7,160S686.09,318.36,689.49,231.7C689.49,231.7,355.45,236.42,355.45,236.54Z" fill="#bcf6e5"/><path d="M676.9,181.63c-57.72,66.3-130.37,82.12-149.58,85.25h0c91,16.13,161.54-26,161.54-26C693.09,211.27,676.9,181.63,676.9,181.63Z" fill="#75ebdc"/><path d="M367.81,181.64c-.29.54-16.15,29.9-11.95,59.27,0,0,70.49,42.1,161.54,26l.39-.13C498,263,419.88,244.51,367.81,181.64Z" fill="#75ebdc"/><path d="M591.46,221.79c-39.76,11.25-69,10.65-69,10.65s-25.31,2.34-62.43-7.22c-26.39-6.8-58.76-19.62-92.24-43.58h0c52.07,62.87,130.18,81.32,150,85.11,3,.58,4.69.81,4.69.81s1.71-.17,4.84-.68c19.21-3.13,91.86-18.95,149.58-85.25A284.77,284.77,0,0,1,591.46,221.79Z" fill="#00e0ce"/><path d="M172,619.76l-.9.45L167,624.3q-21.31,21.32-57.14,21.31-37.18,0-63.94-25.4Q18.7,594.37,18.7,548.11q0-43.54,26.3-70.3,26.76-27.21,68-27.21,34.91,0,53.06,15.42l3.17,2.72h2.27V349.47c0-1.51.9-3.18,2.72-5s3.47-2.72,5-2.72h24.49q2.27,0,5,2.72c1.81,1.81,2.72,3.48,2.72,5v283.9q0,2.26-2.72,5t-4.54,2.73H185.59q-4.54,0-7.71-7.26ZM59.06,548.56V549q0,28.57,15.87,45.81t39.46,17.23q30.83,0,57.59-26.3v-64.4A57.44,57.44,0,0,0,149.76,495a60.51,60.51,0,0,0-33.11-9.52q-24.95,0-41.27,17.23Q59.06,519.54,59.06,548.56Z" fill="#002b3b"/><path d="M290.34,481v.45l3.18-3.63q24-26.74,57.14-26.76,59.86,0,59.86,65.31v4.53c0,1.22-.9,2.73-2.72,4.54s-3.33,2.72-4.53,2.72H378.78q-1.81,0-4.54-2.72t-2.72-5v-1.81q0-16.33-7.25-24.95t-20.41-8.61q-17.25,0-32.2,12.24Q296.24,510,290.34,527.7V633.37c0,1.51-.9,3.17-2.72,5s-3.48,2.73-5,2.73H258.14q-2.26,0-5-2.73t-2.72-5V462.84c0-1.5.91-3.17,2.72-5s3.48-2.73,5-2.73h18.6c3,0,5.44,2.58,7.25,7.71Z" fill="#002b3b"/><path d="M526.17,450.6h.91q44.45,0,73,25.85t28.58,72.11q0,46.26-29,72.11-28.57,25.4-73.47,25.39T452.7,620.67q-29-25.86-29-72.11t29-72.11Q482.18,450.61,526.17,450.6Zm63,97.51-.91.45q0-28.11-16.78-45.35-16.78-17.68-44.89-17.69t-44.9,17.69Q464.95,520.45,465,548.56q0,29,16.78,45.8Q499,611.61,527.08,611.6q27.66,0,44.9-17.69Q589.2,575.78,589.21,548.11Z" fill="#002b3b"/><path d="M702.13,474.64l1.81.45L708,471q20-20,58.5-20,39.9,0,63.94,27.22,24,27.66,24,70.29,0,47.18-27.21,72.11Q801,645.15,761.54,645.16q-33.1,0-53.06-15.42l-5.9-4.54h-.9V746.29q0,2.26-2.73,5T694,754H669.48q-2.28,0-5-2.72c-1.82-1.82-2.72-3.48-2.72-5V462.84c0-1.5.9-3.17,2.72-5s3.47-2.73,5-2.73h18.59c3.32,0,6,2.27,8.16,6.81ZM814.6,548.56q0-29-15-45.81-15-17.22-38.09-17.23-21.33,0-37.19,11.79-15.42,11.34-22.22,30.84v62.13q22.67,21.33,57.14,21.32,23.58,0,39.46-17.24T814.6,548.56Z" fill="#002b3b"/><path d="M891.69,578.94l24,.46q7.24,0,7.25,6.8,0,25.41,54,25.4,44,0,44-26.31,0-15.87-31.74-19l-44.45-4.54q-34-3.63-47.16-15.42Q884,534.05,884,511.82q0-24,21.77-42.17,22.21-18.6,62.13-18.6,43.08,0,63.49,16.33t20.41,40.82c0,3.62-1.81,5.44-5.44,5.44H1020q-7.26,0-8.62-8.16Q1008.24,486,967.88,486q-23.58,0-33.56,8.17-10.44,8.16-10.43,18.14,0,13.61,23.58,16.32L991,533.14q40.82,4.08,55.33,16.78,15,13.16,15,35.37,0,24-20.4,42.18-20,18.15-63.5,18.14-47.16,0-69.84-15.42-23.13-15.87-23.13-44.44Q884.43,578.94,891.69,578.94Z" fill="#002b3b"/></svg>