<svg width="184" height="235" viewBox="0 0 184 235" fill="none" xmlns="http://www.w3.org/2000/svg">
<path d="M83.9645 3.53553C85.9171 1.58291 89.0829 1.58291 91.0355 3.53553L171.464 83.9645C173.417 85.9171 173.417 89.0829 171.464 91.0355L91.0355 171.464C89.0829 173.417 85.9171 173.417 83.9645 171.464L3.53553 91.0355C1.58291 89.0829 1.58291 85.9171 3.53553 83.9645L83.9645 3.53553Z" fill="#CC0033"/>
<path d="M24.9645 135.536C26.9171 133.583 30.0829 133.583 32.0355 135.536L53.4645 156.964C55.4171 158.917 55.4171 162.083 53.4645 164.036L32.0355 185.464C30.0829 187.417 26.9171 187.417 24.9645 185.464L3.53554 164.036C1.58291 162.083 1.58291 158.917 3.53553 156.964L24.9645 135.536Z" fill="#A20028"/>
<path d="M158.964 121.536C160.917 119.583 164.083 119.583 166.036 121.536L180.464 135.964C182.417 137.917 182.417 141.083 180.464 143.036L166.036 157.464C164.083 159.417 160.917 159.417 158.964 157.464L144.536 143.036C142.583 141.083 142.583 137.917 144.536 135.964L158.964 121.536Z" fill="#A20028"/>
<path d="M105.464 210.536C107.417 208.583 110.583 208.583 112.536 210.536L119.464 217.464C121.417 219.417 121.417 222.583 119.464 224.536L112.536 231.464C110.583 233.417 107.417 233.417 105.464 231.464L98.5355 224.536C96.5829 222.583 96.5829 219.417 98.5355 217.464L105.464 210.536Z" fill="#CC0033"/>
</svg>
